# xmcd
#
# Track frame offsets: 
#        150
#        15977
#        33507
#        54092
#        72422
#        95392
#        112250
#        147750
#        174165
#        195395
#        212115
#        239367
#
# Disc length: 3374 seconds
#
# Revision: 2
# Processed by: cddbd v1.5.2PL0 Copyright (c) Steve Scherf et al.
# Submitted via: ExactAudioCopy v0.95b3
#
DISCID=9c0d2c0c
DTITLE=Robbie Laws and The Urban Allstars - Midnight Rain
DYEAR=1995
DGENRE=Blues
TTITLE0=She's Got To Know About The Blues
TTITLE1=When Lightnin' Strikes
TTITLE2=Hurts Me Too
TTITLE3=She's Gone
TTITLE4=I've Been Thinkin'
TTITLE5=Own Free Will
TTITLE6=Poor Little Rich Girl
TTITLE7=Midnight Rain
TTITLE8=Showdow From A Light
TTITLE9=Cold Chill
TTITLE10=Bill's New Drums
TTITLE11=Pawn Shop Prowl
EXTD=Robbie Laws, Guitar - Jeff Metzner, Keyboards - Jake Rose, Bass - Bo
EXTD=yd Martin, Drums - Renato Caranto, Saxophone on She's Gone and I'v
EXTD=e Been Thinking - Kita Montgomery, Backing Vocals on Midnight Rain
EXTT0=Robbie Laws
EXTT1=Robbie Laws
EXTT2=Elmore James
EXTT3=Robbie Laws
EXTT4=Robbie Laws
EXTT5=Robbie Laws
EXTT6=Robbie Laws
EXTT7=Robbie Laws
EXTT8=Robbie Laws
EXTT9=Robbie Laws
EXTT10=Jeffrey Metzner
EXTT11=Robbie Laws
PLAYORDER=
